<svg xmlns="http://www.w3.org/2000/svg" xmlns:xlink="http://www.w3.org/1999/xlink" width="29" height="29" viewBox="0 0 29 29"><defs><path id="ap7xa" d="M23.76 13.14c.29 0 .53.24.53.54 0 .3-.24.55-.53.55a.54.54 0 0 1-.53-.55c0-.3.24-.54.53-.54zm-19 0c.3 0 .53.24.53.54 0 .3-.24.55-.53.55a.54.54 0 0 1-.53-.55c0-.3.24-.54.53-.54zm1.58 1.63c.3 0 .53.24.53.55 0 .3-.23.54-.53.54a.54.54 0 0 1-.52-.54c0-.3.23-.55.52-.55zm3.17 0c.3 0 .53.24.53.55 0 .3-.24.54-.53.54a.54.54 0 0 1-.53-.54c0-.3.24-.55.53-.55zM7.93 16.4c.29 0 .52.25.52.55 0 .3-.23.54-.52.54a.54.54 0 0 1-.53-.54c0-.3.24-.55.53-.55zm3.16 0c.3 0 .53.25.53.55 0 .3-.24.54-.53.54a.54.54 0 0 1-.52-.54c0-.3.23-.55.52-.55zm1.59 1.64c.29 0 .52.24.52.54 0 .3-.23.54-.52.54a.54.54 0 0 1-.53-.54c0-.3.23-.54.53-.54zm3.16 0c.3 0 .53.24.53.54 0 .3-.24.54-.53.54a.54.54 0 0 1-.53-.54c0-.3.24-.54.53-.54zm1.59-1.64c.29 0 .52.25.52.55 0 .3-.23.54-.52.54a.54.54 0 0 1-.53-.54c0-.3.23-.55.53-.55zm-3.17 3.27c.3 0 .53.24.53.54 0 .3-.24.55-.53.55a.54.54 0 0 1-.53-.55c0-.3.24-.54.53-.54zm4.75-4.9c.29 0 .53.24.53.55 0 .3-.24.54-.53.54a.54.54 0 0 1-.53-.54c0-.3.24-.55.53-.55zm3.16 0c.3 0 .53.24.53.55 0 .3-.23.54-.53.54a.54.54 0 0 1-.52-.54c0-.3.23-.55.52-.55zM20.6 16.4c.3 0 .53.25.53.55 0 .3-.24.54-.53.54a.54.54 0 0 1-.53-.54c0-.3.24-.55.53-.55zm3.35 1.05l-.04.03 5.1 2.98L14.5 29 0 20.46l5.1-2.98-5.1-3 5.1-2.99-5.1-3 14.5-8.5L29 8.5l-5.1 3 5.1 2.98-4.96 2.92c-.03.03-.06.05-.1.06zM2.14 8.5l12.36 7.29 8.34-4.91 4.03-2.38L14.5 1.25zm0 5.99l.7.42a.5.5 0 0 1 .34-.13c.29 0 .52.25.52.55l-.01.07 5.3 3.13a.53.53 0 0 1 .52-.48c.3 0 .53.24.53.54 0 .18-.09.33-.22.43l1.16.68.11-.02c.24 0 .43.16.5.38l2.91 1.71 2.42-1.42-.02-.13c0-.3.23-.54.53-.54.14 0 .27.06.36.15l1.2-.7a.53.53 0 0 1-.5-.54c0-.3.23-.54.52-.54a.54.54 0 0 1 .46.8l3.37-1.99 2.08-1.23a.54.54 0 0 1 .42-.85c.22 0 .4.13.48.32l1.05-.61-4.03-2.36-.17.1a.52.52 0 0 1-.5.37l-.1-.02-1.16.69c.12.1.2.25.2.42 0 .3-.23.55-.52.55a.53.53 0 0 1-.51-.48l-5.3 3.12v.08c0 .3-.23.54-.52.54a.54.54 0 0 1-.42-.85l-5.46-3.21c.05.08.07.16.07.25 0 .3-.23.55-.52.55a.54.54 0 0 1-.53-.55c0-.29.22-.52.5-.54l-1.2-.7c-.09.1-.21.15-.36.15a.52.52 0 0 1-.47-.3zm20.7 3.62l-8.34 4.92-8.34-4.92-4.03 2.36 12.37 7.29 12.37-7.29z"/></defs><g><g><use fill="#fd586f" xlink:href="#ap7xa"/></g></g></svg>